<svg width="50" height="50" viewBox="0 0 50 50" fill="none" xmlns="http://www.w3.org/2000/svg">
<path d="M44.3382 23.138C44.0995 21.7978 43.8607 20.4576 43.622 19.1228C43.5677 19.5406 43.5134 19.9584 43.4592 20.3762C44.5715 18.9112 45.6784 17.4407 46.7907 15.9757C46.9481 15.7695 47.1054 15.5633 47.2628 15.3517C47.4744 15.075 47.5015 14.6409 47.4581 14.3154C47.4093 13.9355 47.2519 13.6805 47.0078 13.3821C45.3691 11.3473 43.7359 9.3126 42.0973 7.27786C41.8694 6.99571 41.6415 6.70813 41.4136 6.42598C41.088 6.02446 40.3121 5.81285 39.8292 6.00818C38.0495 6.71898 36.2643 7.43521 34.4846 8.14602C34.235 8.24911 33.98 8.34678 33.7304 8.44987C34.1482 8.50413 34.566 8.55839 34.9838 8.61265C33.98 8.08633 32.9762 7.56001 31.9724 7.03369C32.222 7.35925 32.4716 7.68481 32.7212 8.00494C32.2166 6.30661 31.7174 4.6137 31.2127 2.91537C31.1422 2.67663 31.0717 2.43246 31.0011 2.19372C30.7949 1.50462 30.1547 1 29.433 1C26.834 1 24.2349 1 21.6359 1C21.2723 1 20.9034 1 20.5398 1C19.8128 1 19.1725 1.51004 18.9717 2.19372C18.4671 3.89205 17.9679 5.58495 17.4633 7.28329C17.3928 7.52203 17.3222 7.7662 17.2517 8.00494C17.5013 7.67938 17.7509 7.35382 18.0005 7.03369C16.9967 7.56001 15.9929 8.08633 14.9891 8.61265C15.4069 8.55839 15.8247 8.50413 16.2425 8.44987C14.4627 7.73907 12.6776 7.02284 10.8979 6.31204C10.6483 6.20894 10.3933 6.11127 10.1437 6.00818C9.66075 5.81827 8.88483 6.02446 8.55927 6.42598C6.92063 8.46072 5.28741 10.4955 3.64876 12.5302C3.42087 12.8124 3.19298 13.0999 2.96509 13.3821C2.73177 13.6697 2.56899 13.941 2.51473 14.3154C2.47132 14.6409 2.49845 15.0804 2.71007 15.3517C3.82239 16.8167 4.92929 18.2872 6.04162 19.7522C6.19897 19.9584 6.35633 20.1646 6.51368 20.3762C6.45942 19.9584 6.40516 19.5406 6.3509 19.1228C6.11216 20.463 5.87341 21.8032 5.63467 23.138C5.88427 22.8124 6.13386 22.4869 6.38346 22.1668C4.75024 22.9861 3.11159 23.8 1.47837 24.6193C1.25048 24.7332 1.01716 24.8472 0.789269 24.9666C0.121873 25.303 -0.100592 26.1277 0.0404834 26.806C0.5451 29.2205 1.04972 31.6297 1.54891 34.0442C1.61944 34.3806 1.68998 34.717 1.76052 35.0589C1.91787 35.8022 2.64495 36.1929 3.32863 36.2526C5.21144 36.4208 7.08883 36.589 8.97165 36.7518C9.24295 36.7735 9.51425 36.8006 9.78555 36.8223C9.31891 36.551 8.84685 36.2852 8.38022 36.0139C9.07474 36.9688 9.76927 37.9292 10.4584 38.8842C10.3824 38.6129 10.3119 38.3362 10.2359 38.0649C10.0243 39.8012 9.8181 41.5429 9.60649 43.2792C9.57936 43.5234 9.5468 43.773 9.51967 44.0172C9.45999 44.5326 9.86694 45.2055 10.3281 45.4225C12.5691 46.4914 14.81 47.5603 17.0509 48.6293C17.3711 48.7812 17.6858 48.9331 18.0059 49.085C18.6516 49.3943 19.4546 49.3835 19.981 48.83C21.1747 47.5766 22.3684 46.3178 23.5567 45.0644C23.7249 44.8853 23.8985 44.7063 24.0667 44.5272C23.6815 44.6846 23.3017 44.8474 22.9164 45.0047C24.3055 45.0047 25.6891 45.0047 27.0781 45.0047C26.6929 44.8474 26.3131 44.6846 25.9278 44.5272C27.1216 45.7806 28.3153 47.0395 29.5036 48.2929C29.6718 48.4719 29.8454 48.651 30.0136 48.83C30.5454 49.3889 31.3375 49.3943 31.9887 49.085C34.2296 48.0161 36.4705 46.9472 38.7115 45.8783C39.0316 45.7264 39.3463 45.5744 39.6664 45.4225C40.1276 45.2055 40.5346 44.5326 40.4749 44.0172C40.2633 42.2809 40.0571 40.5391 39.8455 38.8028C39.8184 38.5586 39.7858 38.309 39.7587 38.0649C39.6827 38.3362 39.6122 38.6129 39.5362 38.8842C40.2307 37.9292 40.9253 36.9688 41.6198 36.0139C41.1531 36.2852 40.6811 36.551 40.2145 36.8223C42.0973 36.6541 43.9747 36.4859 45.8575 36.3231C46.1288 36.3014 46.4001 36.2743 46.6714 36.2526C47.355 36.1929 48.0876 35.7914 48.2395 35.0589C48.7441 32.6443 49.2487 30.2352 49.7479 27.8206C49.8184 27.4842 49.889 27.1478 49.9595 26.806C50.1006 26.1331 49.8781 25.303 49.2107 24.9666C47.5775 24.1472 45.9389 23.3333 44.3056 22.514C44.0778 22.4001 43.8444 22.2861 43.6165 22.1668C42.8569 21.7869 41.8205 21.9389 41.3919 22.7528C41.0012 23.4907 41.164 24.5759 41.9779 24.9774C43.6111 25.7967 45.2498 26.6106 46.883 27.43C47.1109 27.5439 47.3442 27.6578 47.5721 27.7772C47.3225 27.1641 47.0729 26.5509 46.8233 25.9378C46.3187 28.3524 45.8141 30.7615 45.3149 33.1761C45.2443 33.5125 45.1738 33.8489 45.1033 34.1907C45.6242 33.7946 46.1505 33.3931 46.6714 32.997C44.5227 33.1869 42.3686 33.3606 40.2253 33.5722C39.5796 33.6373 39.1889 33.8652 38.8091 34.3806C38.7711 34.4295 38.7332 34.4837 38.6952 34.538C38.5215 34.7767 38.3479 35.0155 38.1743 35.2542C37.7565 35.8294 37.3387 36.4045 36.9263 36.9797C36.6876 37.3107 36.4814 37.6145 36.5085 38.0703C36.5139 38.1734 36.5356 38.2765 36.5465 38.3796C36.617 38.9873 36.693 39.5896 36.7635 40.1973C36.9155 41.4724 37.0728 42.7475 37.2247 44.0226C37.496 43.556 37.7619 43.0839 38.0332 42.6173C35.7923 43.6862 33.5513 44.7551 31.3104 45.824C30.9903 45.976 30.6756 46.1279 30.3554 46.2798C31.012 46.3666 31.6685 46.448 32.3305 46.5348C31.5763 45.7372 30.8167 44.945 30.0624 44.1474C29.5904 43.6536 29.1237 43.1599 28.6517 42.6661C28.1851 42.1723 27.8052 41.7654 27.0185 41.7545C25.7542 41.7328 24.49 41.7545 23.2257 41.7545C22.694 41.7545 22.1948 41.8251 21.777 42.232C21.7064 42.2971 21.6467 42.3731 21.5762 42.4436C21.1638 42.8777 20.7515 43.3118 20.3337 43.7513C19.4492 44.6791 18.5648 45.6124 17.6858 46.5403C18.3423 46.4534 18.9989 46.3721 19.6608 46.2852C17.4199 45.2163 15.179 44.1474 12.938 43.0785C12.6179 42.9266 12.3032 42.7746 11.9831 42.6227C12.2544 43.0893 12.5202 43.5614 12.7915 44.028C12.9218 42.9483 13.052 41.8631 13.1822 40.7833C13.2636 40.0942 13.3504 39.4105 13.4318 38.7214C13.4969 38.1734 13.6 37.7176 13.2473 37.1967C12.6016 36.2417 11.8963 35.3193 11.2126 34.3861C10.8273 33.8652 10.4367 33.6373 9.79097 33.5722C9.74756 33.5667 9.70958 33.5667 9.66617 33.5613C9.47627 33.545 9.28636 33.5288 9.09645 33.5125C8.4182 33.4528 7.73452 33.3931 7.05628 33.3334C5.81915 33.2249 4.58203 33.111 3.34491 33.0024C3.8658 33.3985 4.39212 33.8001 4.91301 34.1962C4.4084 31.7816 3.90378 29.3725 3.40459 26.9579C3.33405 26.6215 3.26352 26.2851 3.19298 25.9432C2.94338 26.5564 2.69379 27.1695 2.44419 27.7826C3.448 27.278 4.45723 26.7788 5.46104 26.2742C6.11216 25.9487 6.76327 25.6231 7.41439 25.2975C8.0221 24.9937 8.62981 24.7549 8.79802 23.9736C9.06389 22.7256 9.24837 21.4559 9.47084 20.2025C9.55765 19.7088 9.64447 19.1879 9.33519 18.7321C9.26465 18.6236 9.17784 18.5205 9.09645 18.4174C8.70578 17.9019 8.3151 17.3865 7.92443 16.8656C7.12681 15.8129 6.33462 14.7657 5.537 13.7131C5.45019 14.3696 5.3688 15.0262 5.28198 15.6881C6.92063 13.6534 8.55385 11.6186 10.1925 9.5839C10.4204 9.30175 10.6483 9.01417 10.8762 8.73202C10.3498 8.8731 9.8181 9.00875 9.29178 9.14982C10.2576 9.53507 11.2234 9.92031 12.1893 10.311C13.2473 10.7342 14.2945 11.2117 15.3689 11.5807C16.1122 11.8411 16.9207 11.2768 17.5664 10.9404C18.185 10.6148 18.809 10.2893 19.4275 9.96372C19.8887 9.72498 20.236 9.39399 20.4042 8.86767C20.4422 8.75373 20.4693 8.63978 20.5073 8.52584C20.6863 7.92898 20.86 7.33212 21.039 6.74069C21.4026 5.51442 21.7661 4.28814 22.1297 3.0673C21.6088 3.4634 21.0824 3.86492 20.5615 4.26101C23.1606 4.26101 25.7596 4.26101 28.3587 4.26101C28.7222 4.26101 29.0912 4.26101 29.4547 4.26101C28.9338 3.86492 28.4075 3.4634 27.8866 3.0673C28.1959 4.10366 28.4998 5.14002 28.809 6.18181C29.0098 6.85463 29.2051 7.52203 29.4059 8.19485C29.5958 8.84054 29.726 9.49166 30.3826 9.86605C31.3538 10.4195 32.3685 10.9295 33.3669 11.4287C34.1753 11.8303 34.6474 11.5861 35.3473 11.3094C35.9876 11.0543 36.6333 10.7939 37.2736 10.5389C38.4239 10.0777 39.5742 9.61646 40.7245 9.16068C40.1982 9.0196 39.6664 8.88395 39.1401 8.74288C40.7788 10.7776 42.412 12.8124 44.0506 14.8471C44.2785 15.1293 44.5064 15.4168 44.7343 15.699C44.6475 15.0424 44.5661 14.3859 44.4793 13.7239C43.5731 14.9231 42.6616 16.1222 41.7554 17.3214C41.4027 17.788 41.0012 18.2438 40.6865 18.7321C40.3664 19.2367 40.4803 19.801 40.578 20.3491C40.654 20.7723 40.7299 21.1901 40.8059 21.6133C40.947 22.4163 41.0935 23.2194 41.2345 24.017C41.3051 24.3968 41.6632 24.8038 41.9833 24.9883C42.3306 25.1945 42.8461 25.2813 43.2367 25.151C43.6328 25.0262 44.0126 24.7821 44.208 24.4023C44.3925 23.9845 44.4196 23.5884 44.3382 23.138Z" fill="#fff"/>
<path d="M24.9783 31.5917C24.6256 31.5917 24.2784 31.57 23.9257 31.5211C24.0722 31.5428 24.2132 31.5591 24.3597 31.5808C23.6327 31.4832 22.9273 31.2932 22.2545 31.0057C22.3847 31.0599 22.5149 31.1142 22.6451 31.1684C22.1839 30.9731 21.7444 30.7344 21.3266 30.4576C21.2181 30.3871 21.115 30.3111 21.0065 30.2352C20.7732 30.067 21.1096 30.3383 21.1367 30.3383C21.115 30.3383 20.9902 30.2189 20.9739 30.2026C20.784 30.0453 20.5995 29.8771 20.4259 29.7034C20.2523 29.5298 20.0841 29.3453 19.9267 29.1554C19.8887 29.112 19.8508 29.0632 19.8128 29.0198C19.6934 28.8733 20.0624 29.3562 19.9159 29.15C19.8399 29.0469 19.7639 28.9384 19.688 28.8298C19.4004 28.4066 19.1562 27.9508 18.9555 27.4842C19.0097 27.6144 19.064 27.7446 19.1183 27.8749C18.8361 27.2021 18.6408 26.4967 18.5431 25.7696C18.5648 25.9161 18.5811 26.0572 18.6028 26.2037C18.516 25.5037 18.516 24.7983 18.6028 24.0984C18.5811 24.2449 18.5648 24.386 18.5431 24.5325C18.6408 23.8054 18.8307 23.1 19.1183 22.4272C19.064 22.5574 19.0097 22.6876 18.9555 22.8179C19.1508 22.3566 19.3896 21.9171 19.6663 21.4993C19.7368 21.3908 19.8128 21.2877 19.8887 21.1792C20.0569 20.9459 19.7856 21.2823 19.7856 21.3094C19.7856 21.2877 19.905 21.1629 19.9213 21.1467C20.0786 20.9567 20.2469 20.7723 20.4205 20.5986C20.5941 20.425 20.7786 20.2568 20.9685 20.0994C21.0119 20.0615 21.0608 20.0235 21.1042 19.9855C21.2507 19.8661 20.7678 20.2351 20.9739 20.0886C21.077 20.0126 21.1856 19.9367 21.2941 19.8607C21.7173 19.5731 22.1731 19.329 22.6397 19.1282C22.5095 19.1825 22.3793 19.2367 22.249 19.291C22.9219 19.0088 23.6272 18.8135 24.3543 18.7158C24.2078 18.7375 24.0667 18.7538 23.9202 18.7755C24.6202 18.6887 25.3256 18.6887 26.0255 18.7755C25.879 18.7538 25.7379 18.7375 25.5914 18.7158C26.3185 18.8135 27.0239 19.0034 27.6967 19.291C27.5665 19.2367 27.4363 19.1825 27.3061 19.1282C27.7673 19.3235 28.2068 19.5623 28.6246 19.839C28.7331 19.9095 28.8362 19.9855 28.9447 20.0615C29.178 20.2297 28.8416 19.9584 28.8145 19.9584C28.8362 19.9584 28.961 20.0777 28.9773 20.094C29.1672 20.2514 29.3517 20.4196 29.5253 20.5932C29.6989 20.7668 29.8671 20.9513 30.0245 21.1412C30.0625 21.1846 30.1004 21.2335 30.1384 21.2769C30.2578 21.4234 29.8888 20.9405 30.0353 21.1467C30.1113 21.2497 30.1873 21.3583 30.2632 21.4668C30.5508 21.89 30.795 22.3458 30.9957 22.8124C30.9415 22.6822 30.8872 22.552 30.8329 22.4218C31.1151 23.0946 31.3104 23.8 31.4081 24.527C31.3864 24.3805 31.3701 24.2395 31.3484 24.093C31.4352 24.7929 31.4352 25.4983 31.3484 26.1982C31.3701 26.0517 31.3864 25.9107 31.4081 25.7642C31.3104 26.4912 31.1205 27.1966 30.8329 27.8694C30.8872 27.7392 30.9415 27.609 30.9957 27.4788C30.8004 27.94 30.5616 28.3795 30.2849 28.7973C30.2144 28.9058 30.1384 29.0089 30.0625 29.1174C29.8943 29.3507 30.1655 29.0089 30.1655 28.9872C30.1655 29.0089 30.0462 29.1337 30.0299 29.15C29.8725 29.3399 29.7043 29.5244 29.5307 29.698C29.3571 29.8716 29.1726 30.0398 28.9827 30.1972C28.9393 30.2352 28.8904 30.2732 28.847 30.3111C28.7005 30.4305 29.1834 30.0615 28.9773 30.208C28.8742 30.284 28.7656 30.36 28.6571 30.4359C28.2339 30.7235 27.7781 30.9677 27.3115 31.1684C27.4417 31.1142 27.5719 31.0599 27.7022 31.0057C27.0293 31.2878 26.324 31.4832 25.5969 31.5808C25.7434 31.5591 25.8845 31.5428 26.031 31.5211C25.6783 31.5645 25.331 31.5862 24.9783 31.5917C24.1264 31.5971 23.3125 32.335 23.3505 33.2195C23.3885 34.0985 24.0667 34.8527 24.9783 34.8473C26.9262 34.8364 28.9176 34.2558 30.5074 33.1109C32.1786 31.9064 33.4103 30.3057 34.1211 28.3741C35.4776 24.6898 34.273 20.2351 31.229 17.75C29.6067 16.4261 27.713 15.6447 25.6186 15.4819C23.6761 15.33 21.6468 15.8346 19.981 16.8439C18.3695 17.8205 16.9967 19.291 16.2154 21.011C15.3363 22.9589 15.0759 25.0479 15.4883 27.1532C16.2316 30.9351 19.4872 34.1148 23.3071 34.7008C23.8606 34.7876 24.414 34.8527 24.9783 34.8527C25.8302 34.8581 26.6441 34.0985 26.6061 33.2249C26.5681 32.3296 25.8899 31.5917 24.9783 31.5917Z" fill="#fff"/>
</svg>
